<?xml version="1.0" encoding="UTF-8"?>
<svg xmlns="http://www.w3.org/2000/svg" viewBox="0 0 1200.000000 1000.000000">
  <path fill-rule="evenodd" fill="#205559" d="M 115 932 L 332 932 L 334 443 L 578 302 L 602 291 L 683 335 L 869 443 L 870 932 L 1087 932 L 979 884 L 979 388 L 601 171 L 228 386 L 224 388 L 224 884 L 115 932 Z"/>
  <path fill-rule="evenodd" fill="#BC9E3E" d="M 366 696 L 367 932 L 835 932 L 835 463 L 610 331 L 600 327 L 594 329 L 367 461 L 366 696 Z M 402 698 L 404 491 L 594 380 L 601 377 L 611 382 L 799 492 L 800 906 L 768 891 L 768 745 L 765 732 L 721 731 L 718 742 L 718 810 L 603 877 L 580 866 L 485 809 L 484 553 L 602 486 L 718 553 L 721 632 L 754 634 L 767 632 L 766 510 L 608 417 L 601 414 L 595 416 L 434 511 L 434 892 L 408 906 L 403 903 L 402 698 Z"/>
  <path fill-rule="evenodd" fill="#BC9E3E" d="M 516 681 L 518 793 L 601 841 L 681 795 L 684 793 L 686 783 L 685 732 L 636 733 L 634 761 L 602 781 L 568 762 L 567 610 L 571 599 L 603 583 L 633 600 L 637 632 L 683 633 L 686 626 L 686 570 L 600 523 L 516 571 L 516 681 Z"/>
</svg>
