<svg xmlns="http://www.w3.org/2000/svg" viewBox="0 0 500 500" width="500" height="500">
  <!-- KeyGrid Logo - Monochrome SVG -->
  <defs>
    <style>
      .logo-dark-text { fill: #224480ff; }
      .logo-dark-main { fill: #224480ff; }
      .logo-dark-bar { fill: #095da2ff; }
    </style>
  </defs>
  
  <!-- Logo Symbol -->
  <g transform="translate(250, 165)">
    <!-- Left, top and partial bottom frame sections -->
    <path class="logo-dark-main" d="
      M -65,-100
      C -88,-100 -100,-88 -100,-65
      L -100,65
      C -100,88 -88,100 -65,100
      L 46.5,100
      L 46.5,65
      L -65,65
      L -65,-65
      L 65,-65
      L 65,4
      L 100,4
      L 100,-65
      C 100,-88 88,-100 65,-100
      Z
    "/>
    
    <!-- Bottom right corner and edge -->
    <path class="logo-dark-bar" d="
      M 64,65
      L 64,100
      L 65,100
      C 88,100 100,88 100,65
      L 100,21.5
      L 64,21.5
      Z
    "/>
  </g>
  
  <!-- KEYGRID text -->
  <text x="250" y="380" font-family="'Arial Black', Arial, sans-serif" font-size="72" font-weight="900" text-anchor="middle" class="logo-dark-text">KEYGRID</text>
  
  <!-- PKI SOLUTIONS text -->
  <text x="250" y="435" font-family="Arial, sans-serif" font-size="32" font-weight="300" text-anchor="middle" letter-spacing="6" class="logo-dark-text">PKI SOLUTIONS</text>
</svg>
