<svg width="1171" height="370" viewBox="0 0 1171 370" fill="none" xmlns="http://www.w3.org/2000/svg">
<path d="M158.188 1.30677C161.252 -0.435572 165.008 -0.435607 168.072 1.30677L321.202 88.3732C324.328 90.1507 326.26 93.4695 326.26 97.0656V270.934C326.26 274.53 324.328 277.85 321.202 279.627L168.072 366.693C165.008 368.435 161.252 368.435 158.188 366.693L5.05762 279.627C1.93135 277.85 0 274.53 0 270.934V97.0656C9.47883e-05 93.4695 1.93153 90.1507 5.05762 88.3732L158.188 1.30677ZM165.602 49.3693C164.069 48.498 162.191 48.498 160.658 49.3693L46.0303 114.544C44.4672 115.433 43.502 117.093 43.502 118.891V249.11C43.5021 250.908 44.4672 252.567 46.0303 253.456L160.658 318.631C162.191 319.502 164.069 319.502 165.602 318.631L280.229 253.456C281.793 252.567 282.758 250.908 282.758 249.11V118.891C282.758 117.093 281.793 115.433 280.229 114.544L165.602 49.3693Z" fill="#0172AE"/>
<path d="M160.659 49.3695C162.191 48.4982 164.069 48.4982 165.601 49.3695L280.23 114.545C281.793 115.433 282.758 117.093 282.758 118.891V249.109C282.758 250.907 281.793 252.567 280.23 253.456L165.601 318.631C164.069 319.502 162.191 319.502 160.659 318.631L46.0302 253.456C44.467 252.567 43.5015 250.907 43.5015 249.109V118.891C43.5015 117.093 44.467 115.433 46.0302 114.545L160.659 49.3695Z" fill="#EEE5E5"/>
<path d="M95.5732 166.179C95.5732 164.376 96.5439 162.713 98.1135 161.826L125.147 146.551C127.147 145.421 129.623 146.866 129.623 149.163V284.191C129.623 286.488 127.147 287.933 125.147 286.803L98.1136 271.529C96.5439 270.642 95.5732 268.979 95.5732 267.176V166.179Z" fill="#0172AE"/>
<path d="M54.2383 188.638C54.2383 186.806 55.2409 185.12 56.8511 184.245L79.3005 172.047C81.2995 170.961 83.7328 172.408 83.7328 174.683V258.032C83.7328 260.371 81.1734 261.81 79.1742 260.595L56.6406 246.893C55.1489 245.986 54.2383 244.367 54.2383 242.621V188.638Z" fill="#0172AE"/>
<path d="M241.89 174.813C241.89 172.508 244.38 171.064 246.38 172.209L267.889 184.523C269.445 185.414 270.405 187.069 270.405 188.862V242.944C270.405 244.677 269.508 246.286 268.035 247.197L246.468 260.535C244.469 261.771 241.89 260.334 241.89 257.984V174.813Z" fill="#0172AE"/>
<path d="M141.463 140.618C141.463 139.549 142.032 138.561 142.957 138.024L160.303 127.951C161.854 127.05 163.769 127.049 165.321 127.949L182.664 138.002C183.59 138.538 184.159 139.527 184.159 140.597V292.292C184.159 293.386 183.564 294.393 182.606 294.92L165.222 304.487C163.721 305.313 161.902 305.313 160.401 304.487L143.017 294.92C142.058 294.393 141.463 293.386 141.463 292.292V140.618Z" fill="#0172AE"/>
<path d="M196 149.163C196 146.866 198.476 145.421 200.476 146.551L227.509 161.826C229.079 162.713 230.049 164.376 230.049 166.179V267.221C230.049 269 229.104 270.644 227.568 271.54L200.511 287.32C198.511 288.486 196 287.044 196 284.729V149.163Z" fill="#0172AE"/>
<path d="M54.2383 125.908C54.2383 124.099 55.2146 122.432 56.7916 121.547L159.788 63.7549C161.308 62.9022 163.162 62.9022 164.681 63.7549L267.678 121.547C269.255 122.432 270.231 124.099 270.231 125.908V169.179C270.231 171.472 267.763 172.917 265.763 171.795L164.681 115.078C163.162 114.225 161.308 114.225 159.788 115.078L58.7063 171.795C56.7065 172.917 54.2383 171.472 54.2383 169.179V125.908Z" fill="#FF7811"/>
<path d="M458.601 247.149C458.218 248.439 457.719 249.501 457.105 250.335C456.492 251.094 455.494 251.7 454.113 252.155C452.733 252.535 450.853 252.762 448.475 252.838C446.097 252.99 442.99 253.066 439.154 253.066C436.086 253.066 433.439 253.028 431.215 252.952C429.067 252.952 427.225 252.876 425.691 252.724C424.157 252.573 422.891 252.345 421.894 252.042C420.973 251.738 420.168 251.359 419.477 250.904C418.864 250.449 418.365 249.918 417.981 249.311C417.675 248.628 417.368 247.794 417.061 246.808L372.759 116.301C371.838 113.57 371.263 111.408 371.033 109.816C370.879 108.223 371.263 107.047 372.184 106.288C373.181 105.454 374.83 104.961 377.132 104.809C379.433 104.582 382.655 104.468 386.797 104.468C390.326 104.468 393.088 104.544 395.083 104.695C397.077 104.847 398.611 105.113 399.685 105.492C400.759 105.871 401.488 106.44 401.872 107.199C402.332 107.957 402.754 108.905 403.137 110.043L439.385 223.596H439.5L475.056 110.612C475.363 109.322 475.747 108.298 476.207 107.54C476.667 106.706 477.434 106.061 478.508 105.606C479.659 105.151 481.27 104.847 483.341 104.695C485.413 104.544 488.251 104.468 491.856 104.468C495.385 104.468 498.109 104.582 500.026 104.809C502.021 105.037 503.363 105.606 504.054 106.516C504.821 107.35 505.051 108.564 504.744 110.157C504.514 111.75 503.939 113.874 503.018 116.529L458.601 247.149Z" fill="#FF7811"/>
<path d="M551.233 248.514C551.233 249.273 551.002 249.956 550.542 250.563C550.082 251.094 549.276 251.549 548.126 251.928C547.052 252.307 545.594 252.573 543.753 252.724C541.912 252.952 539.572 253.066 536.734 253.066C533.895 253.066 531.556 252.952 529.715 252.724C527.873 252.573 526.377 252.307 525.227 251.928C524.153 251.549 523.386 251.094 522.925 250.563C522.465 249.956 522.235 249.273 522.235 248.514V147.249C522.235 146.491 522.465 145.846 522.925 145.315C523.386 144.708 524.153 144.215 525.227 143.836C526.377 143.381 527.873 143.04 529.715 142.812C531.556 142.584 533.895 142.471 536.734 142.471C539.572 142.471 541.912 142.584 543.753 142.812C545.594 143.04 547.052 143.381 548.126 143.836C549.276 144.215 550.082 144.708 550.542 145.315C551.002 145.846 551.233 146.491 551.233 147.249V248.514ZM553.419 112.66C553.419 118.425 552.23 122.407 549.852 124.607C547.474 126.807 543.063 127.907 536.619 127.907C530.098 127.907 525.687 126.845 523.386 124.721C521.161 122.597 520.049 118.766 520.049 113.229C520.049 107.464 521.199 103.482 523.501 101.282C525.879 99.0064 530.328 97.8686 536.849 97.8686C543.293 97.8686 547.665 98.9684 549.967 101.168C552.268 103.292 553.419 107.123 553.419 112.66Z" fill="#FF7811"/>
<path d="M667.684 248.856C667.684 249.918 667.3 250.752 666.533 251.359C665.766 251.966 664.538 252.383 662.851 252.611C661.24 252.914 658.823 253.066 655.601 253.066C652.149 253.066 649.618 252.914 648.007 252.611C646.472 252.383 645.36 251.966 644.67 251.359C644.056 250.752 643.749 249.918 643.749 248.856V240.777C639.53 245.253 634.697 248.742 629.25 251.245C623.88 253.748 617.897 255 611.299 255C605.853 255 600.828 254.279 596.225 252.838C591.699 251.473 587.748 249.425 584.373 246.694C581.074 243.887 578.504 240.436 576.663 236.34C574.822 232.244 573.901 227.465 573.901 222.004C573.901 216.087 575.052 210.967 577.354 206.643C579.732 202.244 583.222 198.641 587.825 195.834C592.504 192.951 598.296 190.828 605.2 189.462C612.105 188.097 620.121 187.414 629.25 187.414H639.261V181.27C639.261 178.084 638.916 175.315 638.226 172.964C637.612 170.537 636.538 168.527 635.004 166.934C633.546 165.341 631.552 164.165 629.02 163.406C626.565 162.648 623.497 162.269 619.814 162.269C614.981 162.269 610.647 162.8 606.811 163.861C603.053 164.923 599.715 166.099 596.8 167.389C593.885 168.678 591.43 169.854 589.436 170.916C587.518 171.978 585.945 172.509 584.718 172.509C583.874 172.509 583.107 172.243 582.417 171.712C581.803 171.181 581.266 170.423 580.806 169.437C580.422 168.451 580.115 167.237 579.885 165.796C579.655 164.355 579.54 162.762 579.54 161.017C579.54 158.665 579.732 156.807 580.115 155.442C580.499 154.076 581.228 152.863 582.302 151.801C583.376 150.663 585.255 149.449 587.94 148.16C590.625 146.794 593.77 145.543 597.376 144.405C600.981 143.267 604.894 142.357 609.113 141.674C613.409 140.916 617.82 140.536 622.346 140.536C630.401 140.536 637.267 141.333 642.943 142.926C648.697 144.443 653.415 146.832 657.097 150.094C660.779 153.28 663.464 157.414 665.152 162.496C666.84 167.578 667.684 173.609 667.684 180.587V248.856ZM639.261 205.392H628.214C623.535 205.392 619.546 205.733 616.247 206.416C612.949 207.098 610.264 208.122 608.192 209.488C606.121 210.853 604.587 212.522 603.589 214.494C602.669 216.39 602.209 218.59 602.209 221.093C602.209 225.341 603.551 228.679 606.236 231.106C608.998 233.533 612.795 234.747 617.628 234.747C621.694 234.747 625.414 233.723 628.79 231.675C632.242 229.627 635.732 226.631 639.261 222.686V205.392Z" fill="#FF7811"/>
<path d="M807.148 247.946C807.148 248.78 806.918 249.539 806.458 250.221C806.074 250.828 805.269 251.359 804.042 251.814C802.891 252.193 801.28 252.497 799.209 252.724C797.137 252.952 794.529 253.066 791.384 253.066C786.398 253.066 782.792 252.876 780.567 252.497C778.419 252.118 776.847 251.549 775.849 250.79C774.929 250.032 774.2 249.121 773.663 248.059L728.671 178.198V248.059C728.671 248.894 728.441 249.614 727.98 250.221C727.52 250.828 726.714 251.359 725.564 251.814C724.413 252.193 722.879 252.497 720.961 252.724C719.043 252.952 716.588 253.066 713.597 253.066C710.681 253.066 708.227 252.952 706.232 252.724C704.314 252.497 702.78 252.193 701.629 251.814C700.479 251.359 699.635 250.828 699.098 250.221C698.637 249.614 698.407 248.894 698.407 248.059V109.36C698.407 108.526 698.637 107.805 699.098 107.199C699.635 106.592 700.479 106.099 701.629 105.719C702.78 105.34 704.314 105.037 706.232 104.809C708.227 104.582 710.681 104.468 713.597 104.468C716.588 104.468 719.043 104.582 720.961 104.809C722.879 105.037 724.413 105.34 725.564 105.719C726.714 106.099 727.52 106.592 727.98 107.199C728.441 107.805 728.671 108.526 728.671 109.36V172.054L772.282 109.474C772.819 108.488 773.471 107.692 774.238 107.085C775.006 106.402 776.003 105.871 777.23 105.492C778.458 105.113 780.03 104.847 781.948 104.695C783.866 104.544 786.321 104.468 789.313 104.468C792.381 104.468 794.913 104.582 796.907 104.809C798.902 105.037 800.474 105.378 801.625 105.833C802.853 106.212 803.696 106.706 804.157 107.312C804.617 107.919 804.847 108.602 804.847 109.36C804.847 110.65 804.502 111.977 803.811 113.343C803.121 114.708 801.817 116.87 799.899 119.828L759.049 172.736L803.581 239.298C805.269 242.408 806.266 244.494 806.573 245.556C806.957 246.542 807.148 247.339 807.148 247.946Z" fill="#FF7811"/>
<path d="M920.377 248.514C920.377 249.273 920.186 249.956 919.802 250.563C919.419 251.094 918.728 251.549 917.731 251.928C916.81 252.307 915.544 252.573 913.934 252.724C912.399 252.952 910.443 253.066 908.065 253.066C905.533 253.066 903.462 252.952 901.851 252.724C900.317 252.573 899.089 252.307 898.169 251.928C897.248 251.549 896.596 251.094 896.213 250.563C895.829 249.956 895.637 249.273 895.637 248.514V236.795C889.961 242.863 884.169 247.415 878.262 250.449C872.432 253.483 866.371 255 860.081 255C853.023 255 847.078 253.862 842.245 251.587C837.489 249.311 833.615 246.201 830.623 242.257C827.708 238.312 825.598 233.761 824.294 228.603C823.067 223.369 822.453 216.883 822.453 209.146V147.022C822.453 146.263 822.645 145.619 823.028 145.088C823.488 144.481 824.256 143.988 825.33 143.608C826.48 143.229 827.976 142.964 829.817 142.812C831.735 142.584 834.075 142.471 836.837 142.471C839.675 142.471 842.015 142.584 843.856 142.812C845.697 142.964 847.155 143.229 848.228 143.608C849.379 143.988 850.185 144.481 850.645 145.088C851.105 145.619 851.335 146.263 851.335 147.022V204.367C851.335 209.677 851.681 213.735 852.371 216.542C853.061 219.349 854.097 221.776 855.478 223.824C856.935 225.796 858.738 227.351 860.886 228.489C863.111 229.551 865.681 230.082 868.596 230.082C872.278 230.082 875.96 228.755 879.643 226.1C883.402 223.445 887.391 219.576 891.61 214.494V147.022C891.61 146.263 891.802 145.619 892.185 145.088C892.646 144.481 893.413 143.988 894.487 143.608C895.637 143.229 897.133 142.964 898.974 142.812C900.816 142.584 903.155 142.471 905.994 142.471C908.832 142.471 911.172 142.584 913.013 142.812C914.854 142.964 916.312 143.229 917.386 143.608C918.46 143.988 919.227 144.481 919.687 145.088C920.147 145.619 920.377 146.263 920.377 147.022V248.514Z" fill="#FF7811"/>
<path d="M1052.94 196.403C1052.94 205.429 1051.94 213.546 1049.95 220.752C1047.95 227.958 1045.07 234.102 1041.32 239.184C1037.56 244.267 1032.92 248.173 1027.39 250.904C1021.95 253.635 1015.73 255 1008.75 255C1005.3 255 1002.08 254.659 999.085 253.976C996.094 253.369 993.217 252.345 990.455 250.904C987.77 249.463 985.085 247.642 982.4 245.442C979.792 243.243 977.107 240.588 974.345 237.478V248.514C974.345 249.349 974.115 250.069 973.655 250.676C973.271 251.207 972.581 251.662 971.584 252.042C970.663 252.421 969.397 252.686 967.786 252.838C966.175 252.99 964.219 253.066 961.918 253.066C959.54 253.066 957.545 252.99 955.934 252.838C954.4 252.686 953.134 252.421 952.137 252.042C951.216 251.662 950.564 251.207 950.181 250.676C949.797 250.069 949.605 249.349 949.605 248.514V98.8926C949.605 98.134 949.835 97.4514 950.296 96.8445C950.756 96.2377 951.523 95.7446 952.597 95.3654C953.748 94.9102 955.244 94.5689 957.085 94.3413C958.926 94.1138 961.266 94 964.104 94C966.942 94 969.282 94.1138 971.123 94.3413C972.964 94.5689 974.422 94.9102 975.496 95.3654C976.647 95.7446 977.452 96.2377 977.912 96.8445C978.373 97.4514 978.603 98.134 978.603 98.8926V154.987C981.211 152.408 983.819 150.208 986.428 148.387C989.036 146.567 991.644 145.088 994.252 143.95C996.861 142.736 999.546 141.864 1002.31 141.333C1005.07 140.802 1007.98 140.536 1011.05 140.536C1018.65 140.536 1025.09 142.053 1030.38 145.088C1035.68 148.046 1039.97 152.066 1043.27 157.148C1046.65 162.231 1049.1 168.185 1050.64 175.012C1052.17 181.763 1052.94 188.893 1052.94 196.403ZM1022.9 198.451C1022.9 194.127 1022.56 189.955 1021.87 185.935C1021.26 181.915 1020.14 178.35 1018.53 175.24C1016.92 172.13 1014.81 169.664 1012.2 167.844C1009.67 165.947 1006.45 164.999 1002.54 164.999C1000.62 164.999 998.74 165.265 996.899 165.796C995.058 166.327 993.14 167.237 991.146 168.527C989.228 169.816 987.233 171.485 985.162 173.533C983.091 175.581 980.904 178.122 978.603 181.156V214.835C982.669 219.993 986.543 223.938 990.225 226.669C993.984 229.323 997.896 230.651 1001.96 230.651C1005.72 230.651 1008.9 229.703 1011.51 227.806C1014.12 225.91 1016.27 223.445 1017.96 220.411C1019.72 217.376 1020.99 213.925 1021.75 210.057C1022.52 206.188 1022.9 202.319 1022.9 198.451Z" fill="#FF7811"/>
<path d="M1171 194.81C1171 198.299 1170.19 200.878 1168.58 202.547C1167.05 204.216 1164.9 205.05 1162.14 205.05H1099.66C1099.66 209.374 1100.16 213.318 1101.15 216.883C1102.23 220.373 1103.88 223.369 1106.1 225.872C1108.4 228.299 1111.32 230.158 1114.85 231.447C1118.45 232.737 1122.75 233.382 1127.73 233.382C1132.8 233.382 1137.25 233.04 1141.08 232.358C1144.92 231.599 1148.22 230.803 1150.98 229.968C1153.82 229.058 1156.16 228.261 1158 227.579C1159.84 226.82 1161.33 226.441 1162.48 226.441C1163.18 226.441 1163.75 226.593 1164.21 226.896C1164.67 227.124 1165.05 227.579 1165.36 228.261C1165.67 228.944 1165.86 229.93 1165.94 231.22C1166.09 232.433 1166.17 233.988 1166.17 235.885C1166.17 237.554 1166.13 238.995 1166.05 240.208C1165.98 241.346 1165.86 242.332 1165.71 243.167C1165.55 244.001 1165.32 244.722 1165.02 245.329C1164.71 245.86 1164.29 246.391 1163.75 246.922C1163.29 247.453 1161.95 248.173 1159.72 249.083C1157.5 249.994 1154.66 250.904 1151.21 251.814C1147.76 252.649 1143.81 253.369 1139.36 253.976C1134.91 254.659 1130.15 255 1125.09 255C1115.96 255 1107.94 253.862 1101.04 251.587C1094.21 249.311 1088.49 245.86 1083.89 241.233C1079.29 236.605 1075.84 230.765 1073.54 223.71C1071.31 216.656 1070.2 208.388 1070.2 198.906C1070.2 189.879 1071.39 181.763 1073.77 174.557C1076.14 167.275 1079.6 161.131 1084.12 156.124C1088.65 151.042 1094.13 147.174 1100.58 144.519C1107.1 141.864 1114.42 140.536 1122.56 140.536C1131.15 140.536 1138.47 141.788 1144.53 144.291C1150.67 146.794 1155.7 150.284 1159.61 154.759C1163.52 159.159 1166.4 164.392 1168.24 170.461C1170.08 176.529 1171 183.128 1171 190.259V194.81ZM1142.92 186.618C1143.15 178.577 1141.5 172.281 1137.97 167.73C1134.52 163.103 1129.15 160.789 1121.87 160.789C1118.18 160.789 1114.96 161.472 1112.2 162.837C1109.51 164.203 1107.25 166.061 1105.41 168.413C1103.65 170.688 1102.26 173.419 1101.27 176.605C1100.35 179.715 1099.81 183.053 1099.66 186.618H1142.92Z" fill="#FF7811"/>
</svg>
